<?xml version="1.0" encoding="UTF-8" standalone="no"?>
<svg xmlns="http://www.w3.org/2000/svg" xmlns:xlink="http://www.w3.org/1999/xlink" class="card" face="KH" height="3.5in" preserveAspectRatio="none" viewBox="-106 -164.5 212 329" width="2.25in"><symbol id="SHK" viewBox="-600 -600 1200 1200" preserveAspectRatio="xMinYMid"><path d="M0 -300C0 -400 100 -500 200 -500C300 -500 400 -400 400 -250C400 0 0 400 0 500C0 400 -400 0 -400 -250C-400 -400 -300 -500 -200 -500C-100 -500 0 -400 -0 -300Z"></path></symbol><symbol id="VHK" viewBox="-500 -500 1000 1000" preserveAspectRatio="xMinYMid"><path d="M-285 -460L-85 -460M-185 -460L-185 460M-285 460L-85 460M85 -460L285 -460M185 -440L-170 155M85 460L285 460M185 440L-10 -70" stroke="#264653" stroke-width="80" stroke-linecap="square" stroke-miterlimit="1.5" fill="none"></path></symbol><rect width="211" height="328" x="-105.5" y="-164" rx="19" ry="19" fill="#fbefd0" stroke="black"></rect><use xlink:href="#VHK" height="136.8" x="-68.4" y="-68.4"></use><use xlink:href="#VHK" height="32" x="-100.4" y="-145.5"></use><use xlink:href="#SHK" height="26.769" x="-97.784" y="-108.5" stroke="#264653" stroke-width="100" stroke-linejoin="round" stroke-linecap="round"></use><use xlink:href="#SHK" height="26.769" x="-97.784" y="-108.5" fill="#e76f51"></use><g transform="rotate(180)"><use xlink:href="#VHK" height="32" x="-100.4" y="-145.5"></use><use xlink:href="#SHK" height="26.769" x="-97.784" y="-108.5" stroke="#264653" stroke-width="100" stroke-linejoin="round" stroke-linecap="round"></use><use xlink:href="#SHK" height="26.769" x="-97.784" y="-108.5" fill="#e76f51"></use></g></svg>