<?xml version="1.0" encoding="UTF-8" standalone="no"?>
<svg xmlns="http://www.w3.org/2000/svg" xmlns:xlink="http://www.w3.org/1999/xlink" class="card" face="QC" height="3.5in" preserveAspectRatio="none" viewBox="-106 -164.5 212 329" width="2.25in"><symbol id="SCQ" viewBox="-600 -600 1200 1200" preserveAspectRatio="xMinYMid"><path d="M30 150C35 385 85 400 130 500L-130 500C-85 400 -35 385 -30 150A10 10 0 0 0 -50 150A210 210 0 1 1 -124 -51A10 10 0 0 0 -110 -65A230 230 0 1 1 110 -65A10 10 0 0 0 124 -51A210 210 0 1 1 50 150A10 10 0 0 0 30 150Z"></path></symbol><symbol id="VCQ" viewBox="-500 -500 1000 1000" preserveAspectRatio="xMinYMid"><path d="M-260 100C40 100 -40 460 260 460M-175 0L-175 -285A175 175 0 0 1 175 -285L175 285A175 175 0 0 1 -175 285Z" stroke="#264653" stroke-width="80" stroke-linecap="square" stroke-miterlimit="1.5" fill="none"></path></symbol><rect width="211" height="328" x="-105.5" y="-164" rx="19" ry="19" fill="#fbefd0" stroke="black"></rect><use xlink:href="#VCQ" height="136.8" x="-68.4" y="-68.4"></use><use xlink:href="#VCQ" height="32" x="-100.4" y="-145.5"></use><use xlink:href="#SCQ" height="26.769" x="-97.784" y="-108.5" fill="#264653"></use><g transform="rotate(180)"><use xlink:href="#VCQ" height="32" x="-100.4" y="-145.5"></use><use xlink:href="#SCQ" height="26.769" x="-97.784" y="-108.5" fill="#264653"></use></g></svg>