<?xml version="1.0" encoding="UTF-8" standalone="no"?>
<svg xmlns="http://www.w3.org/2000/svg" xmlns:xlink="http://www.w3.org/1999/xlink" class="card" face="KD" height="3.5in" preserveAspectRatio="none" viewBox="-106 -164.5 212 329" width="2.25in"><symbol id="SDK" viewBox="-600 -600 1200 1200" preserveAspectRatio="xMinYMid"><path d="M-400 0C-350 0 0 -450 0 -500C0 -450 350 0 400 0C350 0 0 450 0 500C0 450 -350 0 -400 0Z"></path></symbol><symbol id="VDK" viewBox="-500 -500 1000 1000" preserveAspectRatio="xMinYMid"><path d="M-285 -460L-85 -460M-185 -460L-185 460M-285 460L-85 460M85 -460L285 -460M185 -440L-170 155M85 460L285 460M185 440L-10 -70" stroke="#264653" stroke-width="80" stroke-linecap="square" stroke-miterlimit="1.5" fill="none"></path></symbol><rect width="211" height="328" x="-105.5" y="-164" rx="19" ry="19" fill="#fbefd0" stroke="black"></rect><use xlink:href="#VDK" height="136.8" x="-68.4" y="-68.4"></use><use xlink:href="#VDK" height="32" x="-100.4" y="-145.5"></use><use xlink:href="#SDK" height="26.769" x="-97.784" y="-108.5" stroke="#264653" stroke-width="100" stroke-linejoin="round" stroke-linecap="round"></use><use xlink:href="#SDK" height="26.769" x="-97.784" y="-108.5" fill="#e76f51"></use><g transform="rotate(180)"><use xlink:href="#VDK" height="32" x="-100.4" y="-145.5"></use><use xlink:href="#SDK" height="26.769" x="-97.784" y="-108.5" stroke="#264653" stroke-width="100" stroke-linejoin="round" stroke-linecap="round"></use><use xlink:href="#SDK" height="26.769" x="-97.784" y="-108.5" fill="#e76f51"></use></g></svg>